<?xml version="1.0" encoding="UTF-8"?>
<svg version="1.1" viewBox="0 0 10 10" xml:space="preserve" xmlns="http://www.w3.org/2000/svg"><path d="m0.574 0.00391c-0.221 0-0.4 0.179-0.4 0.4 0.0011 0.22 0.18 0.398 0.4 0.398h0.457v5.33c-7.01e-4 0.0137-7.01e-4 0.0273 0 0.041v2.56c0 0.221 0.179 0.4 0.4 0.4h7.59v0.455c0 0.221 0.179 0.4 0.4 0.4s0.4-0.179 0.4-0.4v-1.71c-0.0011-0.22-0.18-0.398-0.4-0.398-0.22-2.8e-6 -0.399 0.178-0.4 0.398v0.457h-4.66c-0.14-1.24-0.827-1.95-1.5-2.27-0.383-0.186-0.762-0.262-1.04-0.293v-4.97h0.457c0.22 2.75e-6 0.399-0.178 0.4-0.398 0-0.221-0.179-0.4-0.4-0.4h-1.71z" stop-color="#000000" stroke-linecap="round" stroke-linejoin="round"/></svg>
