<?xml version="1.0" encoding="UTF-8"?>
<svg version="1.1" viewBox="0 0 10 10" xml:space="preserve" xmlns="http://www.w3.org/2000/svg"><path d="m2.08 0.266c-0.22-2.75e-6 -0.399 0.178-0.4 0.398v1.03h-1.02c-0.22 0.0011-0.398 0.18-0.398 0.4-2.75e-6 0.22 0.178 0.399 0.398 0.4h1.02v5.03h-1.02c-0.22 0.0011-0.398 0.18-0.398 0.4-2.75e-6 0.22 0.178 0.399 0.398 0.4h1.02v1.02c0.0011 0.22 0.18 0.398 0.4 0.398 0.22 2.8e-6 0.399-0.178 0.4-0.398v-1.02h5.03v1.02c0.0011 0.22 0.18 0.398 0.4 0.398 0.22 2.8e-6 0.399-0.178 0.4-0.398v-1.02h1.03c0.22-0.0011 0.398-0.18 0.398-0.4 2.8e-6 -0.22-0.178-0.399-0.398-0.4h-1.03v-5.03h1.03c0.22-0.0011 0.398-0.18 0.398-0.4 2.8e-6 -0.22-0.178-0.399-0.398-0.4h-1.03v-1.03c-0.0011-0.22-0.18-0.398-0.4-0.398-0.22-2.75e-6 -0.399 0.178-0.4 0.398v1.03h-5.03v-1.03c-0.0011-0.22-0.18-0.398-0.4-0.398z" stop-color="#000000" stroke-linecap="round" stroke-linejoin="round"/></svg>
