<svg version="1.1" viewBox="0 0 10 10" xml:space="preserve" xmlns="http://www.w3.org/2000/svg"><g fill="none" stroke="#000" stroke-linecap="round" stroke-linejoin="round"><path d="m4.6183 2.3065s2.497 0.96156 3.5558 3.5056c0.62438 1.5002 0.73953 3.449-2.3806 3.5833-3.3354 0.14353-4.0628-0.95201-4.0628-0.95201s-1.0386-1.4787 0.69102-3.8725c1.6507-2.2846 2.6324-2.2574 2.6324-2.2574s-2.3981-0.99831-1.588-1.5804c0.81018-0.58209 0.29386 0.87946 1.319 0.58638 1.0252-0.29308 1.3388-1.0489 1.3541-0.59733 0.015309 0.45154-1.5211 1.5845-1.5211 1.5845z" stroke-width=".8" style="paint-order:stroke markers fill"/><path d="m5.9149 5.292s-0.21305-0.60833-1.0063-0.55312c-0.7869 0.054772-0.88418 0.47451-0.86475 0.83472 0.019426 0.36021 0.5685 0.46351 0.84679 0.51599 0.34382 0.064835 0.89015 0.12221 1.0826 0.51978 0.12048 0.24884-0.10942 0.80203-0.64373 0.9086-0.54379 0.10846-0.98728-0.10114-0.98728-0.10114s-0.30637-0.16194-0.41332-0.5521" stroke-width=".6" style="paint-order:stroke markers fill"/><path d="m4.9351 4.2379v3.8687" stroke-width=".6" style="paint-order:stroke markers fill"/></g></svg>
