<?xml version="1.0" encoding="UTF-8"?>
<svg version="1.1" viewBox="0 0 10 10" xml:space="preserve" xmlns="http://www.w3.org/2000/svg"><path d="m6.08 0.166c-0.185 0.00798-0.336 0.213-0.494 0.266-0.203 0.165-0.789 0.478-1.04 0.477-0.246-0.00102-0.206-0.462-0.473-0.627-0.413-0.256-1.1 0.14-1.17 0.629 0.0146 0.733 0.687 1.18 1.13 1.41-0.507 0.318-1.11 0.857-1.94 2.01-0.91 1.26-1.12 2.33-1.07 3.1 0.0493 0.759 0.37 1.23 0.373 1.24 0.242 0.338 0.71 0.571 0.951 0.674 0.667 0.285 1.74 0.527 3.46 0.453 1.64-0.0707 2.6-0.671 2.95-1.53 0.351-0.856 0.118-1.81-0.215-2.61-0.916-2.2-2.53-3.07-3.22-3.4 0.545-0.436 0.729-0.638 0.896-0.838 0.164-0.196 0.336-0.362 0.324-0.707-0.00974-0.288-0.134-0.431-0.293-0.496-0.0576-0.0365-0.112-0.0491-0.164-0.0469zm-1.15 3.77c0.166 6.46e-4 0.299 0.135 0.299 0.301v0.215c0.301 0.047 0.532 0.181 0.682 0.324 0.203 0.193 0.281 0.416 0.281 0.416 0.0539 0.156-0.0281 0.326-0.184 0.381-0.156 0.0551-0.328-0.0271-0.383-0.184-0.0144-0.0396-0.132-0.261-0.396-0.33v0.787c0.111 0.0221 0.233 0.0504 0.355 0.0938 0.243 0.0862 0.512 0.243 0.654 0.537 0.131 0.27 0.0576 0.546-0.0898 0.793-0.226 0.379-0.578 0.525-0.92 0.564v0.271c-6.42e-4 0.165-0.134 0.298-0.299 0.299-0.166 4.32e-4 -0.3-0.133-0.301-0.299v-0.293c-0.257-0.0475-0.423-0.129-0.428-0.131 0 0-0.428-0.23-0.568-0.74-0.0428-0.16 0.0515-0.324 0.211-0.367 0.16-0.0442 0.325 0.0494 0.369 0.209 0.0728 0.265 0.254 0.358 0.26 0.361 0.00274 0.00125 0.0603 0.0287 0.156 0.0547v-0.857c-0.117-0.0266-0.253-0.0639-0.387-0.123-0.11-0.049-0.223-0.113-0.32-0.215-0.0974-0.102-0.175-0.251-0.184-0.416-0.0115-0.213 0.00758-0.491 0.191-0.73 0.147-0.191 0.383-0.325 0.699-0.387v-0.234c-4.34e-4 -0.166 0.134-0.301 0.301-0.301zm-0.301 1.15c-0.31 0.0939-0.298 0.321-0.275 0.424 0.0229 0.102 0.0585 0.147 0.275 0.211v-0.635zm0.6 1.38v0.77c0.197-0.0335 0.324-0.136 0.404-0.27 0.0576-0.0964 0.0571-0.198 0.0605-0.221v-0.00195l0.00195-0.00195c-0.0451-0.0913-0.144-0.197-0.467-0.275z" stop-color="#000000" stroke-linecap="round" stroke-linejoin="round" style="paint-order:stroke markers fill"/></svg>
