<?xml version="1.0" encoding="UTF-8"?>
<svg version="1.1" viewBox="0 0 10 10" xmlns="http://www.w3.org/2000/svg">
 <path d="m5 0.131c-2.68 0-4.87 2.18-4.87 4.87s2.18 4.87 4.87 4.87 4.87-2.18 4.87-4.87-2.18-4.87-4.87-4.87zm-1.06 2.43c0.384 0 0.701 0.315 0.701 0.699s-0.317 0.701-0.701 0.701-0.699-0.317-0.699-0.701 0.315-0.699 0.699-0.699zm2.41 0.459c0.346 3e-7 0.631 0.285 0.631 0.631 0 0.346-0.285 0.629-0.631 0.629-0.346 0-0.629-0.283-0.629-0.629 0-0.346 0.283-0.631 0.629-0.631zm-3.25 1.57c0.439 0 0.801 0.361 0.801 0.801 0 0.439-0.361 0.799-0.801 0.799-0.439 0-0.799-0.359-0.799-0.799-1e-7 -0.439 0.359-0.801 0.799-0.801zm3.39 0.311c0.66 0 1.2 0.539 1.2 1.2 0 0.66-0.539 1.2-1.2 1.2-0.66 1e-7 -1.2-0.541-1.2-1.2 0-0.66 0.541-1.2 1.2-1.2zm-2.5 2.02c0.22 0 0.4 0.181 0.4 0.4s-0.181 0.4-0.4 0.4c-0.22 0-0.4-0.181-0.4-0.4-2e-7 -0.22 0.181-0.4 0.4-0.4z" stop-color="#000000"/>
</svg>
