<?xml version="1.0" encoding="UTF-8"?>
<svg version="1.1" viewBox="0 0 10 10" xml:space="preserve" xmlns="http://www.w3.org/2000/svg"><path d="m5 0.338c-1.08 0-2.05 0.0803-2.78 0.217-0.364 0.0683-0.665 0.148-0.908 0.256-0.122 0.0538-0.231 0.113-0.332 0.205-0.0817 0.0748-0.164 0.19-0.193 0.334-0.00322 0.0157-0.00795 0.0305-0.00977 0.0469-0.00274 0.0194-0.00404 0.039-0.00391 0.0586v7.19c0 0.194 0.106 0.347 0.207 0.439 0.101 0.0924 0.211 0.151 0.332 0.205 0.243 0.108 0.544 0.188 0.908 0.256 0.729 0.137 1.7 0.217 2.78 0.217 1.08 0 2.05-0.0803 2.78-0.217 0.364-0.0683 0.665-0.148 0.908-0.256 0.122-0.0538 0.231-0.113 0.332-0.205 0.101-0.0924 0.207-0.246 0.207-0.439v-7.19c0-0.00106 6.3e-6 -0.00285 0-0.00391-4.98e-5 -0.0183-0.00135-0.0366-0.00391-0.0547-0.00181-0.0164-0.00655-0.0312-0.00977-0.0469-0.0294-0.144-0.112-0.259-0.193-0.334-0.101-0.0924-0.211-0.151-0.332-0.205-0.243-0.108-0.544-0.188-0.908-0.256-0.729-0.137-1.7-0.217-2.78-0.217zm3.36 1.12v0.785s-2.03 0.329-3.3 0.334c-1.28 0.00503-3.43-0.309-3.43-0.309v-0.773s2.2 0.286 3.43 0.281c2.08-0.00821 3.31-0.318 3.31-0.318zm-6.73 2.55s0.983 0.402 3.33 0.408c1.43 0.00359 3.41-0.367 3.41-0.367v0.752s-1.92 0.418-3.41 0.414-3.33-0.436-3.33-0.436zm0.0552 2.58c0.103-0.00223 1.07 0.402 3.41 0.408 1.43 0.00359 3.32-0.367 3.32-0.367v0.752s-1.84 0.418-3.32 0.414c-1.48-0.00373-2.69-0.145-3.41-0.436-0.0128-0.233-0.00424-0.484 0-0.771z" stop-color="#000000" style="paint-order:stroke markers fill"/></svg>
