<?xml version="1.0" encoding="UTF-8"?>
<svg version="1.1" viewBox="0 0 10 10" xml:space="preserve" xmlns="http://www.w3.org/2000/svg"><path d="m3.69 0.264c-0.221-1.94e-4 -0.401 0.179-0.4 0.4v0.373h-0.648c-0.221-1.94e-4 -0.401 0.179-0.4 0.4v7.9c-1.94e-4 0.221 0.179 0.401 0.4 0.4h4.71c0.221 1.94e-4 0.401-0.179 0.4-0.4v-7.9c1.94e-4 -0.221-0.179-0.401-0.4-0.4h-0.764v-0.373c1.95e-4 -0.22-0.178-0.4-0.398-0.4zm-0.648 1.57h3.91v7.1h-3.91z" stop-color="#000000" stroke-linecap="round" stroke-linejoin="round" style="paint-order:stroke markers fill"/><path d="m4 5.64h0.961l-0.588 2.19 1.62-2.8h-0.925l0.559-2.09c-0.544 0.886-1.1 1.79-1.62 2.69z" style="paint-order:stroke markers fill"/></svg>
