<?xml version="1.0" encoding="UTF-8"?>
<svg version="1.1" viewBox="0 0 10 10" xml:space="preserve" xmlns="http://www.w3.org/2000/svg"><path d="m3.69 0.264c-0.221-1.94e-4 -0.401 0.179-0.4 0.4v0.373h-0.648c-0.221-1.94e-4 -0.401 0.179-0.4 0.4v7.9c-1.94e-4 0.221 0.179 0.401 0.4 0.4h4.71c0.221 1.94e-4 0.401-0.179 0.4-0.4v-7.9c1.94e-4 -0.221-0.179-0.401-0.4-0.4h-0.764v-0.373c1.95e-4 -0.22-0.178-0.4-0.398-0.4h-2.5zm1.94 2.68-0.559 2.09h0.926l-1.62 2.8 0.588-2.19h-0.963c0.521-0.903 1.08-1.81 1.62-2.69z" stop-color="#000000" stroke-linecap="round" stroke-linejoin="round" style="paint-order:stroke markers fill"/></svg>
