<?xml version="1.0" encoding="UTF-8"?>
<svg version="1.1" viewBox="0 0 10 10" xml:space="preserve" xmlns="http://www.w3.org/2000/svg"><path d="m5.44 0.486c-0.228-0.00915-0.427 0.0224-0.6 0.133-0.172 0.11-0.274 0.309-0.295 0.463-0.0411 0.308 0.0977 0.508 0.0977 0.508 0.0343 0.0672 0.449 0.592 0.818 1.01 0.105 0.119 0.27 0.165 0.422 0.117 0.423-0.133 0.678-0.23 1.19-0.398l0.27 0.787c-0.441 0.911-0.584 1.73-0.641 2.18-0.0313 0.251-0.0816 0.392-0.0879 0.4-0.145 0.198-0.525-0.659-1.44-0.855-0.469-0.101-0.933 0.0931-1.38 0.291-0.487-1.24-1.21-1.9-1.87-2.11-0.726-0.234-1.35-0.043-1.35-0.043-0.168 0.0521-0.282 0.207-0.281 0.383 0 0-0.0331 2.92 0.00195 3.01 0.887 1.05 1.83 2.24 3.16 2.74s3.2 0.452 5.78-0.353c0.273-0.98 0.775-3.31 0.17-5.63-0.171-0.744-0.499-1.43-0.826-2.11-0.0425-0.181-0.173-0.337-0.303-0.416-0.13-0.0791-0.253-0.105-0.357-0.117-0.0407-0.00459-1.39 0.0401-2.49-0.00391z" stop-color="#000000" stroke-linecap="round" stroke-linejoin="round" style="paint-order:stroke markers fill"/></svg>
