<svg version="1.1" viewBox="0 0 10 10" xml:space="preserve" xmlns="http://www.w3.org/2000/svg"><path d="m3.5823 5.5362c0.81025-0.6846 2.2845-0.32183 2.8317 0.56795m0 0c1.1056 0.059384 0.27914-1.0862 1.345-3.0187l-0.4333-1.2683c-1.252 0.39021-1.021 0.35281-1.5598 0.52226-0.40291-0.46057-0.76585-0.9354-0.76585-0.9354s-0.28603-0.54617 0.42776-0.51756c0.74132 0.029717 2.2031 0.010761 2.2031 0.010761s0.50211-0.09489 0.57502 0.21647c0.072915 0.31136 1.8752 2.9155 0.78784 7.3055m0 0c-5.0756 1.5808-6.5185-0.016708-8.2874-2.1115m0 0-0.001409-2.9508s1.9852-0.61518 2.8774 2.1794" fill="none" stroke="#000" stroke-linecap="round" stroke-linejoin="round" stroke-width=".8" style="paint-order:stroke markers fill"/></svg>
