<?xml version="1.0" encoding="UTF-8"?>
<svg version="1.1" viewBox="0 0 10 10" xml:space="preserve" xmlns="http://www.w3.org/2000/svg"><path d="m2.09 0.139c-0.117 3e-3 -0.386 0.027-0.656 0.174-0.36 0.196-0.707 0.677-0.67 1.38l0.00586 6.35c-0.181 0.183-0.353 0.357-0.459 0.508-0.134 0.19-0.243 0.384-0.205 0.646 0.0384 0.262 0.262 0.437 0.439 0.51 0.178 0.0726 0.361 0.104 0.57 0.133l0.0273 0.00391h4.66c0.00467-0.00445 0.00923-0.00901 0.0137-0.0137 0.00447 0.00401 0.00903 0.00792 0.0137 0.0117 0.432-0.0301 0.773-0.123 0.955-0.438 0.0911-0.157 0.101-0.341 0.0723-0.482-0.0289-0.141-0.0865-0.254-0.15-0.355-0.195-0.309-0.38-0.429-0.504-0.525v-4.14c0.0801 0.0145 0.167 0.037 0.252 0.0723 0.295 0.122 0.57 0.313 0.584 1.04 0.0326 1.7 0.0332 2.11 0.0332 2.11-0.00345 0.441 0.149 0.82 0.402 1.07 0.254 0.249 0.591 0.361 0.916 0.35 0.65-0.0221 1.29-0.605 1.23-1.44 0 0 0.0401-2.89 0.00195-4.36-0.00342-0.132-0.0722-0.255-0.184-0.326-0.408-0.262-0.816-0.523-1.22-0.785-0.186-0.119-0.434-0.065-0.553 0.121-0.119 0.186-0.065 0.434 0.121 0.553l0.346 0.223c0.023 0.0922 0.0556 0.253 0.137 0.457 0.0863 0.217 0.274 0.454 0.568 0.617 0.0142 1.42-0.0209 3.45-0.00977 3.56 0.0319 0.455-0.211 0.579-0.461 0.588-0.125 0.00425-0.241-0.0374-0.328-0.123-0.0874-0.0857-0.164-0.222-0.162-0.488 4.27e-4 -0.0583-0.00791-0.708-0.0352-2.13-0.0188-0.979-0.561-1.55-1.08-1.76-0.199-0.0824-0.394-0.123-0.559-0.143v-1.45l-0.00195 0.0254c0.0402-0.665-0.239-1.13-0.561-1.33-0.321-0.204-0.656-0.188-0.656-0.188-0.966-2.02e-6 -1.93 0-2.9 0zm0.68 1.66h1.43c0.205-1.84e-4 0.372 0.166 0.373 0.371v1.01c1.82e-4 0.206-0.167 0.373-0.373 0.373h-1.43c-0.206 1.82e-4 -0.373-0.167-0.373-0.373v-1.01c8.94e-4 -0.205 0.168-0.371 0.373-0.371z" stop-color="#000000" stroke-linecap="round" style="paint-order:stroke markers fill"/></svg>
