<?xml version="1.0" encoding="UTF-8"?>
<svg version="1.1" viewBox="0 0 10 10" xml:space="preserve" xmlns="http://www.w3.org/2000/svg"><path d="m8.1 0.218c-0.192-0.192-0.501-0.192-0.693 0l-0.99 0.99 0.83 0.83c0.147 0.147 0.147 0.383 0 0.53s-0.383 0.147-0.53 0l-0.83-0.83-0.987 0.987 0.83 0.83c0.147 0.147 0.147 0.383 0 0.53-0.147 0.147-0.383 0.147-0.53 0l-0.83-0.83-0.987 0.987 0.83 0.83c0.147 0.147 0.147 0.383 0 0.53-0.147 0.147-0.383 0.147-0.53 0l-0.83-0.83-0.987 0.987 0.83 0.83c0.147 0.147 0.147 0.383 0 0.53-0.147 0.147-0.383 0.147-0.53 0l-0.83-0.83-1.04 1.04c-0.192 0.192-0.192 0.501 0 0.693l1.66 1.66c0.192 0.192 0.501 0.192 0.693 0l7.11-7.11c0.192-0.192 0.192-0.501 0-0.693z" style="paint-order:stroke markers fill"/></svg>
