<?xml version="1.0" encoding="UTF-8"?>
<svg version="1.1" viewBox="0 0 10 10" xml:space="preserve" xmlns="http://www.w3.org/2000/svg"><g fill="none" stroke="#000" stroke-linecap="round" stroke-linejoin="round" stroke-width=".8"><path d="m4.09 2.64v-2.13l-0.701 0.701" style="paint-order:stroke markers fill"/><path d="m6.26 0.164c-0.349 0-0.637 0.215-0.811 0.477s-0.264 0.585-0.264 0.938 0.0898 0.678 0.264 0.939c0.174 0.262 0.462 0.477 0.811 0.477 0.349 0 0.635-0.215 0.809-0.477 0.174-0.262 0.264-0.587 0.264-0.939s-0.0898-0.676-0.264-0.938c-0.174-0.262-0.46-0.477-0.809-0.477z" fill="#000" stop-color="#000000" stroke="none" style="paint-order:stroke markers fill"/><path d="m6.61 6.2v-2.13l-0.701 0.701" style="paint-order:stroke markers fill"/><path d="m6.61 9.49v-2.13l-0.701 0.701" style="paint-order:stroke markers fill"/><path d="m1.56 6.2v-2.13l-0.701 0.701" style="paint-order:stroke markers fill"/><path d="m3.73 3.73c-0.349 0-0.637 0.215-0.811 0.477s-0.264 0.585-0.264 0.938 0.0898 0.678 0.264 0.939c0.174 0.262 0.462 0.477 0.811 0.477 0.349 0 0.635-0.215 0.809-0.477 0.174-0.262 0.264-0.587 0.264-0.939s-0.0898-0.676-0.264-0.938c-0.174-0.262-0.46-0.477-0.809-0.477z" fill="#000" stop-color="#000000" stroke="none" style="paint-order:stroke markers fill"/><path d="m8.79 3.72c-0.349 0-0.637 0.215-0.811 0.477s-0.264 0.585-0.264 0.938 0.0898 0.678 0.264 0.939c0.174 0.262 0.462 0.477 0.811 0.477 0.349 0 0.635-0.215 0.809-0.477 0.174-0.262 0.264-0.587 0.264-0.939s-0.0898-0.676-0.264-0.938c-0.174-0.262-0.46-0.477-0.809-0.477z" fill="#000" stop-color="#000000" stroke="none" style="paint-order:stroke markers fill"/><path d="m4.09 9.49v-2.13l-0.701 0.701" style="paint-order:stroke markers fill"/><path d="m1.21 7c-0.349 0-0.637 0.215-0.811 0.477s-0.264 0.585-0.264 0.938 0.0898 0.678 0.264 0.939c0.174 0.262 0.462 0.477 0.811 0.477 0.349 0 0.635-0.215 0.809-0.477 0.174-0.262 0.264-0.587 0.264-0.939s-0.0898-0.676-0.264-0.938c-0.174-0.262-0.46-0.477-0.809-0.477z" fill="#000" stop-color="#000000" stroke="none" style="paint-order:stroke markers fill"/></g></svg>
