<?xml version="1.0" encoding="UTF-8"?>
<svg version="1.1" viewBox="0 0 10 10" xml:space="preserve" xmlns="http://www.w3.org/2000/svg"><g stroke-linecap="round" stroke-linejoin="round"><path d="m0.737 8.77h8.53" stroke="#000" stroke-width=".8" style="paint-order:stroke markers fill"/><path d="m0.737 7.24h8.53" stroke="#000" stroke-width=".8" style="paint-order:stroke markers fill"/><path d="m4.87 0.832c-1.78 0-3.23 1.45-3.23 3.23 0 1.78 1.45 3.23 3.23 3.23s3.23-1.45 3.23-3.23c0-1.78-1.45-3.23-3.23-3.23zm1.27 1.56a0.4 0.4 0 0 1 0.283 0.117 0.4 0.4 0 0 1 0 0.566l-0.773 0.773c0.0187 0.0676 0.0293 0.138 0.0293 0.211 1e-7 0.441-0.364 0.805-0.805 0.805s-0.807-0.364-0.807-0.805c0-0.441 0.366-0.807 0.807-0.807 0.0728 0 0.144 0.0106 0.211 0.0293l0.771-0.773a0.4 0.4 0 0 1 0.283-0.117z" stop-color="#000000" style="paint-order:stroke markers fill"/></g></svg>
