<?xml version="1.0" encoding="UTF-8"?>
<svg version="1.1" viewBox="0 0 10 10" xml:space="preserve" xmlns="http://www.w3.org/2000/svg"><path d="m3.3 1.84c-0.898 0.13-1.79 0.273-2.69 0.412-0.194 0.0304-0.337 0.197-0.338 0.393l-0.0176 3.16c-1.43e-5 0.00195-1.43e-5 0.00391 0 0.00586 0 0-0.00115 0.434 0.227 0.879 0.228 0.445 0.759 0.916 1.6 0.914l6.01-0.0156c0.00848-3.8e-4 0.0169-0.00103 0.0254-0.00195 0 0 0.442-0.0248 0.891-0.262 0.449-0.237 0.938-0.766 0.918-1.58-0.0132-0.538-0.418-0.904-0.791-1.06-0.368-0.155-0.74-0.187-0.979-0.199-0.609-0.0509-1.12-0.141-1.56-0.27l-0.678 1.34c-0.0999 0.197-0.34 0.275-0.537 0.176-0.197-0.0992-0.277-0.34-0.178-0.537l0.641-1.27c-0.17-0.0817-0.328-0.17-0.479-0.268l-0.65 1.25c-0.102 0.196-0.343 0.272-0.539 0.17-0.196-0.102-0.272-0.343-0.17-0.539l0.717-1.38c-0.122-0.11-0.241-0.227-0.359-0.35l-0.672 1.18c-0.109 0.192-0.353 0.259-0.545 0.15-0.193-0.109-0.261-0.354-0.15-0.547l0.799-1.41c-0.0617-0.0703-0.124-0.142-0.188-0.215-0.0786-0.0902-0.193-0.139-0.311-0.137z" stop-color="#000000" stroke-linecap="round" stroke-linejoin="round" style="paint-order:stroke markers fill"/></svg>
