<?xml version="1.0" encoding="UTF-8"?>
<svg version="1.1" viewBox="0 0 10 10" xml:space="preserve" xmlns="http://www.w3.org/2000/svg"><path d="m7.19 2c-0.143 0.00348-0.273 0.0832-0.342 0.209l-0.242 0.447c-0.794-0.339-1.61-0.254-1.62-0.252-2.8 0.00887-4.88 2.2-4.88 4.9-5.09e-4 0.389 0.497 0.55 0.725 0.234 0.793-1.09 1.43-1.85 2.06-2.35 1.18-0.914 2.33-0.818 2.7-0.645l-1 1.85c-0.44 0.00359-0.805 0.368-0.805 0.809 0 0.443 0.368 0.811 0.811 0.811s0.811-0.368 0.811-0.811c0-0.152-0.0438-0.296-0.119-0.418l2.27-4.19c0.105-0.194 0.033-0.435-0.16-0.541-0.0616-0.0336-0.131-0.0505-0.201-0.0488z" stop-color="#000000" stroke-linecap="round" stroke-linejoin="round" style="paint-order:stroke markers fill"/><path d="m8 3.9c0.77 0.7 1.5 1.7 1.5 3.4h-1.8c-0.11-1.2-0.24-1.3-0.54-1.9z" stroke="#000" stroke-linecap="round" stroke-linejoin="round" stroke-width=".8" style="paint-order:stroke markers fill"/></svg>
