<svg version="1.1" viewBox="0 0 10 10" xml:space="preserve" xmlns="http://www.w3.org/2000/svg"><g fill="none" stroke="#000" stroke-linecap="round" stroke-linejoin="round" stroke-width=".8"><path d="m4.6 7.2 2.6-4.8" style="paint-order:stroke markers fill"/><path d="m5 7.2a0.41 0.41 0 0 1-0.41 0.41 0.41 0.41 0 0 1-0.41-0.41 0.41 0.41 0 0 1 0.41-0.41 0.41 0.41 0 0 1 0.41 0.41z" style="paint-order:stroke markers fill"/><path d="m8 3.9c0.77 0.7 1.5 1.7 1.5 3.4h-1.8c-0.11-1.2-0.24-1.3-0.54-1.9z" style="paint-order:stroke markers fill"/><path d="m5 4c-1.9 0.13-2.9 1.1-4.5 3.3 0-2.5 1.9-4.5 4.5-4.5 0 0 0.97-0.077 1.7 0.35m-0.6 1.3c-0.27-0.42-1.1-0.43-1.1-0.43" style="paint-order:stroke markers fill"/></g></svg>
