<?xml version="1.0" encoding="UTF-8"?>
<svg version="1.1" viewBox="0 0 10 10" xml:space="preserve" xmlns="http://www.w3.org/2000/svg"><path d="m5 0.174c-0.608 0-1.03 0.312-1.2 0.627-0.176 0.315-0.162 0.627-0.162 0.627l-0.0176 5.56c-0.221 0.306-0.434 0.631-0.434 1.02 0 0.998 0.818 1.82 1.82 1.82 0.998 0 1.82-0.818 1.82-1.82 0-0.395-0.207-0.722-0.424-1.03l-0.00781-5.58s0.00488-0.31-0.178-0.619c-0.183-0.309-0.601-0.611-1.21-0.611zm0 3.72a0.2 0.2 0 0 1 0.199 0.199v3.44a0.585 0.585 0 0 1 0.385 0.549 0.585 0.585 0 0 1-0.584 0.586 0.585 0.585 0 0 1-0.584-0.586 0.585 0.585 0 0 1 0.385-0.549v-3.44a0.2 0.2 0 0 1 0.199-0.199z" stop-color="#000000" stroke-linecap="round" stroke-linejoin="round" style="paint-order:stroke markers fill"/></svg>
