<?xml version="1.0" encoding="UTF-8"?>
<svg version="1.1" viewBox="0 0 10 10" xml:space="preserve" xmlns="http://www.w3.org/2000/svg"><path d="m5 0.131c-2.68 0-4.87 2.18-4.87 4.87s2.18 4.87 4.87 4.87 4.87-2.18 4.87-4.87-2.18-4.87-4.87-4.87zm0 1.47a0.4 0.4 0 0 1 0.4 0.4v2.83l1.27 1.27a0.4 0.4 0 0 1 0 0.564 0.4 0.4 0 0 1-0.564 0l-1.39-1.39a0.4 0.4 0 0 1-0.117-0.283v-3a0.4 0.4 0 0 1 0.4-0.4z" stop-color="#000000" stroke-linecap="round" stroke-linejoin="round" style="paint-order:stroke markers fill"/></svg>
