<?xml version="1.0" encoding="UTF-8"?>
<svg version="1.1" viewBox="0 0 10 10" xml:space="preserve" xmlns="http://www.w3.org/2000/svg"><path d="m3.45 0.0996c-0.22-2.17e-4 -0.4 0.178-0.4 0.398-2.16e-4 0.221 0.179 0.401 0.4 0.4v3.04l-1.04 1.76-1.52 2.58s-0.221 0.287-0.271 0.688c-0.0251 0.2 0.0078 0.48 0.207 0.684 0.199 0.204 0.488 0.281 0.832 0.281h6.5c0.00195 1.43e-5 0.00391 1.43e-5 0.00586 0 0.363-0.00623 0.653-0.086 0.871-0.252 0.218-0.166 0.328-0.412 0.355-0.617 0.0542-0.411-0.123-0.732-0.123-0.732-7e-3 -0.0141-0.0148-0.0278-0.0234-0.041l-1.64-2.58-0.00195-0.00391c-0.00867-0.0163-0.0185-0.0319-0.0293-0.0469l-1.1-1.73v-3.03c0.22-0.00193 0.397-0.181 0.396-0.4-8.61e-4 -0.22-0.18-0.399-0.4-0.398h-2.62zm0.799 0.799h1.42v3.14c-2.62e-5 0.0761 0.0217 0.151 0.0625 0.215l0.785 1.24h-3.06l0.736-1.25c0.036-0.0616 0.0549-0.132 0.0547-0.203z" stop-color="#000000" stroke-linecap="round" stroke-linejoin="round" style="paint-order:stroke markers fill"/></svg>
