<?xml version="1.0" encoding="iso-8859-1"?>
<!-- Generator: Adobe Illustrator 16.0.0, SVG Export Plug-In . SVG Version: 6.00 Build 0)  -->
<!DOCTYPE svg PUBLIC "-//W3C//DTD SVG 1.1//EN" "http://www.w3.org/Graphics/SVG/1.1/DTD/svg11.dtd">
<svg version="1.1" id="Capa_1" xmlns="http://www.w3.org/2000/svg" xmlns:xlink="http://www.w3.org/1999/xlink" x="0px" y="0px"
	 width="93.535px" height="93.535px" viewBox="0 0 93.535 93.535" style="enable-background:new 0 0 93.535 93.535;"
	 xml:space="preserve">
<g>
	<g>
		<path d="M88.653,93.535c2.255,0,4.07-1.814,4.07-4.07V74.834c0-2.256-1.815-4.07-4.07-4.07s-4.07,1.814-4.07,4.07v3.245H43.936
			c0.138-0.248,0.248-0.522,0.248-0.825c0-1.705-0.138-3.438-0.413-5.115c-0.138-0.879-0.962-1.513-1.87-1.348
			c-0.88,0.139-1.485,0.962-1.348,1.87c0.248,1.513,0.357,3.053,0.357,4.593c0,0.303,0.11,0.577,0.248,0.825H16.239V48.596
			c1.402,0.221,2.805,0.522,4.152,0.936c0.165,0.056,0.33,0.082,0.468,0.082c0.688,0,1.348-0.439,1.567-1.154
			c0.275-0.854-0.22-1.76-1.072-2.035c-1.65-0.495-3.328-0.88-5.006-1.1c-0.027,0-0.055,0-0.082,0V8.14h3.245
			c2.255,0,4.07-1.815,4.07-4.07c0-2.255-1.815-4.07-4.07-4.07H4.881c-2.256,0-4.07,1.815-4.07,4.07c0,2.255,1.814,4.07,4.07,4.07
			h3.245v74.036c0,2.256,1.815,4.07,4.07,4.07h72.413v3.218C84.583,91.719,86.398,93.535,88.653,93.535z"/>
		<path d="M23.967,49.036c-0.385,0.798-0.055,1.788,0.743,2.173c1.375,0.688,2.695,1.458,3.96,2.365
			c0.275,0.191,0.605,0.303,0.936,0.303c0.522,0,1.018-0.247,1.319-0.688c0.523-0.742,0.358-1.76-0.385-2.283
			c-1.402-0.989-2.888-1.87-4.4-2.612C25.315,47.909,24.354,48.238,23.967,49.036z"/>
		<path d="M37.856,58.084c-1.018-1.375-2.145-2.668-3.383-3.878c-0.632-0.634-1.677-0.604-2.31,0.026
			c-0.633,0.633-0.605,1.679,0.027,2.312c1.1,1.072,2.117,2.255,3.025,3.492c0.33,0.44,0.825,0.659,1.32,0.659
			c0.33,0,0.688-0.108,0.962-0.329C38.241,59.816,38.378,58.799,37.856,58.084z"/>
		<path d="M39.479,68.178c0.22,0.688,0.853,1.127,1.54,1.127c0.165,0,0.33-0.027,0.495-0.082c0.853-0.275,1.32-1.211,1.045-2.062
			c-0.522-1.622-1.21-3.219-1.98-4.73c-0.412-0.797-1.402-1.1-2.2-0.688c-0.797,0.412-1.1,1.402-0.688,2.199
			C38.378,65.29,38.984,66.721,39.479,68.178z"/>
		<g>
			<path d="M46.491,53.546c-0.412-0.247-0.715-0.688-0.715-1.237c0-0.771,0.633-1.375,1.431-1.375c0.302,0,0.55,0.109,0.77,0.248
				c0.715,0.412,1.32,0.604,2.173,0.604c1.678,0,2.585-1.267,2.776-3.108c-0.66,0.578-1.594,0.936-2.776,0.936
				c-2.971,0-4.868-1.649-4.868-4.399v-0.027c0-2.751,2.118-4.786,5.198-4.786c1.843,0,2.915,0.44,3.933,1.485
				c0.963,0.963,1.623,2.448,1.623,5.143v0.027c0.027,4.455-2.035,7.48-5.939,7.48C48.583,54.537,47.509,54.18,46.491,53.546z
				 M53.011,45.103v-0.027c0-1.21-0.908-2.09-2.394-2.09s-2.312,0.853-2.312,2.062v0.027c0,1.21,0.908,2.062,2.394,2.062
				C52.186,47.137,53.011,46.286,53.011,45.103z"/>
			<path d="M58.181,47.496v-0.027c0-3.959,2.447-7.068,6.078-7.068c3.603,0,6.051,3.054,6.051,7.014v0.026
				c0,3.961-2.448,7.068-6.078,7.068C60.602,54.537,58.181,51.457,58.181,47.496z M67.257,47.496v-0.027
				c0-2.475-1.211-4.345-2.998-4.345s-2.971,1.814-2.971,4.317v0.027c0,2.502,1.184,4.346,2.997,4.346
				C66.101,51.814,67.257,49.971,67.257,47.496z"/>
			<path d="M72.179,43.563v-0.027c0-1.65,1.32-2.998,3.025-2.998s2.997,1.32,2.997,2.971v0.027c0,1.65-1.319,2.998-3.024,2.998
				C73.444,46.534,72.179,45.213,72.179,43.563z M72.261,48.238c0-0.356,0.304-0.633,0.634-0.633h4.565
				c0.356,0,0.633,0.304,0.633,0.633c0,0.357-0.303,0.633-0.633,0.633h-4.565C72.564,48.898,72.261,48.596,72.261,48.238z
				 M76.607,43.563v-0.027c0-0.853-0.577-1.595-1.431-1.595c-0.853,0-1.375,0.715-1.375,1.567v0.027
				c0,0.853,0.578,1.595,1.431,1.595S76.607,44.388,76.607,43.563z"/>
		</g>
	</g>
</g>
<g>
</g>
<g>
</g>
<g>
</g>
<g>
</g>
<g>
</g>
<g>
</g>
<g>
</g>
<g>
</g>
<g>
</g>
<g>
</g>
<g>
</g>
<g>
</g>
<g>
</g>
<g>
</g>
<g>
</g>
</svg>
