<?xml version="1.0" encoding="iso-8859-1"?>
<!-- Generator: Adobe Illustrator 17.1.0, SVG Export Plug-In . SVG Version: 6.00 Build 0)  -->
<!DOCTYPE svg PUBLIC "-//W3C//DTD SVG 1.1//EN" "http://www.w3.org/Graphics/SVG/1.1/DTD/svg11.dtd">
<svg version="1.1" id="Capa_1" xmlns="http://www.w3.org/2000/svg" xmlns:xlink="http://www.w3.org/1999/xlink" x="0px" y="0px"
	 viewBox="0 0 295 295" style="enable-background:new 0 0 295 295;" xml:space="preserve">
<path d="M295,230.5c0,8.284-6.716,15-15,15h-36.333v34c0,8.284-6.716,15-15,15s-15-6.716-15-15v-34h-134v34c0,8.284-6.716,15-15,15
	s-15-6.716-15-15v-34H16c-8.284,0-15-6.716-15-15s6.716-15,15-15h33.667v-134H15c-8.284,0-15-6.716-15-15s6.716-15,15-15h34.667v-36
	c0-8.284,6.716-15,15-15s15,6.716,15,15v35h134v-35c0-8.284,6.716-15,15-15s15,6.716,15,15v36H279c8.284,0,15,6.716,15,15
	s-6.716,15-15,15h-34.333v134H280C288.284,215.5,295,222.216,295,230.5z"/>
<g>
</g>
<g>
</g>
<g>
</g>
<g>
</g>
<g>
</g>
<g>
</g>
<g>
</g>
<g>
</g>
<g>
</g>
<g>
</g>
<g>
</g>
<g>
</g>
<g>
</g>
<g>
</g>
<g>
</g>
</svg>
