<?xml version="1.0" encoding="iso-8859-1"?>
<!-- Generator: Adobe Illustrator 17.1.0, SVG Export Plug-In . SVG Version: 6.00 Build 0)  -->
<!DOCTYPE svg PUBLIC "-//W3C//DTD SVG 1.1//EN" "http://www.w3.org/Graphics/SVG/1.1/DTD/svg11.dtd">
<svg xmlns="http://www.w3.org/2000/svg" xmlns:xlink="http://www.w3.org/1999/xlink" version="1.1" id="Capa_1" x="0px" y="0px" viewBox="0 0 364 364" style="enable-background:new 0 0 364 364;" xml:space="preserve" width="512px" height="512px">
<path d="M312,0H52C40.972,0,32,8.972,32,20v324c0,11.028,8.972,20,20,20h260c11.028,0,20-8.972,20-20V20C332,8.972,323.028,0,312,0z   M123,325c0,4.962-4.037,9-9,9H82c-4.963,0-9-4.038-9-9v-33c0-4.962,4.037-9,9-9h32c4.963,0,9,4.038,9,9V325z M123,249  c0,4.962-4.037,9-9,9H82c-4.963,0-9-4.038-9-9v-33c0-4.962,4.037-9,9-9h32c4.963,0,9,4.038,9,9V249z M123,173c0,4.962-4.037,9-9,9  H82c-4.963,0-9-4.038-9-9v-33c0-4.962,4.037-9,9-9h32c4.963,0,9,4.038,9,9V173z M209,325c0,4.962-4.037,9-9,9h-32  c-4.963,0-9-4.038-9-9v-33c0-4.962,4.037-9,9-9h32c4.963,0,9,4.038,9,9V325z M209,249c0,4.962-4.037,9-9,9h-32c-4.963,0-9-4.038-9-9  v-33c0-4.962,4.037-9,9-9h32c4.963,0,9,4.038,9,9V249z M209,173c0,4.962-4.037,9-9,9h-32c-4.963,0-9-4.038-9-9v-33  c0-4.962,4.037-9,9-9h32c4.963,0,9,4.038,9,9V173z M294,325c0,4.962-4.037,9-9,9h-32c-4.963,0-9-4.038-9-9V216c0-4.962,4.037-9,9-9  h32c4.963,0,9,4.038,9,9V325z M294,173c0,4.962-4.037,9-9,9h-32c-4.963,0-9-4.038-9-9v-33c0-4.962,4.037-9,9-9h32  c4.963,0,9,4.038,9,9V173z M298,89c0,5.523-4.477,10-10,10H77c-5.523,0-10-4.477-10-10V46c0-5.523,4.477-10,10-10h211  c5.523,0,10,4.477,10,10V89z" fill="#FFFFFF"/>
<g>
</g>
<g>
</g>
<g>
</g>
<g>
</g>
<g>
</g>
<g>
</g>
<g>
</g>
<g>
</g>
<g>
</g>
<g>
</g>
<g>
</g>
<g>
</g>
<g>
</g>
<g>
</g>
<g>
</g>
</svg>
