<?xml version="1.0" encoding="iso-8859-1"?>
<!-- Generator: Adobe Illustrator 16.0.0, SVG Export Plug-In . SVG Version: 6.00 Build 0)  -->
<!DOCTYPE svg PUBLIC "-//W3C//DTD SVG 1.1//EN" "http://www.w3.org/Graphics/SVG/1.1/DTD/svg11.dtd">
<svg version="1.1" id="Capa_1" xmlns="http://www.w3.org/2000/svg" xmlns:xlink="http://www.w3.org/1999/xlink" x="0px" y="0px"
	 width="442.707px" height="442.706px" viewBox="0 0 442.707 442.706" style="enable-background:new 0 0 442.707 442.706;"
	 xml:space="preserve">
<g>
	<path d="M369.819,0h-260.5c-2.338,0-4.579,1.023-6.111,2.795L50.562,63.531c-1.279,1.471-1.97,3.355-1.97,5.307V418.41
		c0,13.396,10.888,24.296,24.287,24.296h296.941c13.408,0,24.296-10.9,24.296-24.296V24.293C394.109,10.899,383.221,0,369.819,0z
		 M147.903,102.645H120.66V30.981h27.243V102.645z M104.012,103.5H76.793V82.176h27.219V103.5z M191.449,102.645H164.23V30.981
		h27.219V102.645z M234.56,102.645h-27.218V30.981h27.218V102.645z M278.116,102.645h-27.212V30.981h27.212V102.645z
		 M321.471,102.645h-27.243V30.981h27.243V102.645z M363.261,102.645h-27.213V30.981h27.213V102.645z"/>
</g>
<g>
</g>
<g>
</g>
<g>
</g>
<g>
</g>
<g>
</g>
<g>
</g>
<g>
</g>
<g>
</g>
<g>
</g>
<g>
</g>
<g>
</g>
<g>
</g>
<g>
</g>
<g>
</g>
<g>
</g>
</svg>
