<?xml version="1.0" encoding="iso-8859-1"?>
<!-- Generator: Adobe Illustrator 16.0.0, SVG Export Plug-In . SVG Version: 6.00 Build 0)  -->
<!DOCTYPE svg PUBLIC "-//W3C//DTD SVG 1.1//EN" "http://www.w3.org/Graphics/SVG/1.1/DTD/svg11.dtd">
<svg version="1.1" id="Capa_1" xmlns="http://www.w3.org/2000/svg" xmlns:xlink="http://www.w3.org/1999/xlink" x="0px" y="0px"
	 width="420.75px" height="420.75px" viewBox="0 0 420.75 420.75" style="enable-background:new 0 0 420.75 420.75;"
	 xml:space="preserve">
<g>
	<polygon points="238.059,127.334 151.049,239.062 206.206,239.062 182.691,322.104 269.701,210.375 214.544,210.375 	"/>
	<path d="M258.188,0h-95.625c-10.566,0-19.125,8.559-19.125,19.125V38.25h-38.25C89.371,38.25,76.5,51.121,76.5,66.938v325.125
		c0,15.816,12.871,28.688,28.688,28.688h210.375c15.816,0,28.688-12.871,28.688-28.688V66.938c0-15.816-12.871-28.688-28.688-28.688
		h-38.25V19.125C277.312,8.559,268.754,0,258.188,0z M315.562,57.375c5.278,0,9.562,4.284,9.562,9.562v325.125
		c0,5.278-4.284,9.562-9.562,9.562H105.188c-5.278,0-9.562-4.284-9.562-9.562V66.938c0-5.278,4.284-9.562,9.562-9.562h57.375h95.625
		H315.562z"/>
</g>
<g>
</g>
<g>
</g>
<g>
</g>
<g>
</g>
<g>
</g>
<g>
</g>
<g>
</g>
<g>
</g>
<g>
</g>
<g>
</g>
<g>
</g>
<g>
</g>
<g>
</g>
<g>
</g>
<g>
</g>
</svg>
