<?xml version="1.0" encoding="UTF-8" standalone="no"?>
<!-- Generator: Adobe Illustrator 18.0.0, SVG Export Plug-In . SVG Version: 6.00 Build 0)  -->

<svg
   xmlns:dc="http://purl.org/dc/elements/1.1/"
   xmlns:cc="http://creativecommons.org/ns#"
   xmlns:rdf="http://www.w3.org/1999/02/22-rdf-syntax-ns#"
   xmlns:svg="http://www.w3.org/2000/svg"
   xmlns="http://www.w3.org/2000/svg"
   xmlns:sodipodi="http://sodipodi.sourceforge.net/DTD/sodipodi-0.dtd"
   xmlns:inkscape="http://www.inkscape.org/namespaces/inkscape"
   enable-background="new 0 0 404.487 404.487"
   version="1.1"
   viewBox="0 0 404 404"
   xml:space="preserve"
   id="svg12"
   sodipodi:docname="forza.svg"
   inkscape:version="0.92.4 (5da689c313, 2019-01-14)"><defs
     id="defs16" /><sodipodi:namedview
     pagecolor="#ffffff"
     bordercolor="#666666"
     borderopacity="1"
     objecttolerance="10"
     gridtolerance="10"
     guidetolerance="10"
     inkscape:pageopacity="0"
     inkscape:pageshadow="2"
     inkscape:window-width="1920"
     inkscape:window-height="1017"
     id="namedview14"
     showgrid="false"
     inkscape:zoom="1.1683168"
     inkscape:cx="88.459049"
     inkscape:cy="144.06174"
     inkscape:window-x="1912"
     inkscape:window-y="-7"
     inkscape:window-maximized="1"
     inkscape:current-layer="svg12" /><metadata
     id="metadata2"><rdf:RDF><cc:Work
         rdf:about=""><dc:format>image/svg+xml</dc:format><dc:type
           rdf:resource="http://purl.org/dc/dcmitype/StillImage" /><dc:title /></cc:Work></rdf:RDF></metadata><g
     id="g10">
















<path
   d="m13 250c0-0.031 6.1e-4 -0.044 0.0013-0.028 7.4e-4 0.016 7.4e-4 0.041 0 0.057-7.4e-4 0.016-0.0013 3e-3 -0.0013-0.028z"
   stroke-width=".0039"
   id="path4" /><path
   d="m13 250c0-0.38 4.6e-4 -0.54 1e-3 -0.35 5.6e-4 0.19 5.6e-4 0.5 0 0.7-5.6e-4 0.19-1e-3 0.034-1e-3 -0.35z"
   stroke-width=".0039"
   id="path6" /><path
   d="M 208,383 C 166,380.6 127,367 95,343 76,329 56,308 42,288 c -1.7,-2.4 -7.6,-9.1 -8.7,-9.6 -5.9,-1.2 -7.7,-4.2 -18,5.9 l -1.8,1.7 -0.32,-12 c -0.17,-6.4 -0.37,-43 -0.43,-81 l -0.11,-70 3.5,-0.8 c 12,-2.7 30,-3.9 42,-2.8 28,2.6 51,14 68,34 6.9,8.2 18,22 20,31 3.3,9.8 4.3,14 6.6,15 4.6,-0.52 34,-3 42,-2.1 24,2.8 47,13 69,32 4.8,1.7 7.8,-7.8 7,-11 l 0.072,-8.9 c 0.14,-17 3.2,-33 9.5,-50 0.96,-2.6 4.2,-9.8 7.3,-16 8.6,-18 10,-24 9.7,-36 -0.18,-3.6 -0.45,-7.2 -0.6,-8 l -0.27,-1.5 c -1.2,-8 3,-15 -19,-5.4 -19,7.6 -35,14 -37,15 -7.6,2.4 -17,-0.11 -22,-6 -3.4,-3.7 -29,-41 -31,-44 -1.4,-3 -1.6,-4.1 -1.8,-8.4 -0.16,-4.1 -0.002,-5.6 0.88,-8.2 3.3,-9.9 11,-16 22,-17 2.1,-0.14 30,-0.63 62,-1.1 62,-0.89 60,-0.93 65,1.6 6.1,3 8.5,6.2 13,17 22,50 36,103 42,154 6.1,53 2.1,103 -12,148 -1.57203,6.19301 -1.91155,7.5 -3.6,8.1 C 321.9731,368.40552 263.06951,381.94758 208,383 Z"
   id="path8"
   inkscape:connector-curvature="0"
   style="stroke-width:0.5"
   sodipodi:nodetypes="ccccccccccccccccccccccccccccccccccccc" /></g></svg>