<?xml version="1.0" encoding="UTF-8"?>
<!-- Created with Inkscape (http://www.inkscape.org/) -->
<svg width="400" height="400" version="1.1" viewBox="0 0 400 400" xml:space="preserve" xmlns="http://www.w3.org/2000/svg" xmlns:cc="http://creativecommons.org/ns#" xmlns:dc="http://purl.org/dc/elements/1.1/" xmlns:rdf="http://www.w3.org/1999/02/22-rdf-syntax-ns#"><metadata><rdf:RDF><cc:Work rdf:about=""><dc:format>image/svg+xml</dc:format><dc:type rdf:resource="http://purl.org/dc/dcmitype/StillImage"/><dc:title/></cc:Work></rdf:RDF></metadata><g transform="matrix(1.33 0 0 -1.33 0 400)"><g transform="translate(-34.6 -9.61)" fill="#fff"><g transform="translate(-316 -340)"><g fill="#fff"><g fill="#fff"><g fill="#fff"><path d="m410 647c-31.4 0-56.9-25.5-56.9-56.9v-180c0-4.9 0.619-9.38 1.58-13.4 2.77-11.5 17.1-15.5 25.5-7.09l0.107 0.108 238 238c3.05 3.05 0.625 8.26-3.67 7.88-51.1-4.5-94.1-22.7-94.1-22.7 18-0.11 33.4-1.37 45.9-2.96l-178-205c-4.86-5.59-14.2-2.27-14.2 5.14v180c0 19.9 16.1 36.1 36.1 36.1h103l1.64 0.696c1.63 0.69 31.4 13.1 71.1 20.2z" fill="#fff"/></g></g></g></g><g transform="translate(-316 -340)"><g fill="#fff"><g fill="#fff"><g fill="#fff"><path d="m628 619-238-238c-8.35-8.35-4.4-22.6 7.04-25.5 4.05-1.03 8.53-1.7 13.3-1.7h180c31.4 0 56.9 25.5 56.9 56.9v174c-5.72-30.6-15.3-51.7-20.9-62.3v-112c0-19.9-16.1-36.1-36.1-36.1h-180c-0.061 0-0.123 0-0.183 1e-3 -7.41 0.037-10.7 9.35-5.14 14.2l204 178c1.02-12.1 1.41-26.7 0.207-42.8 0 0 22.1 32.8 26.7 92.1 0.228 2.95-2.16 5-4.65 5-1.13 0-2.28-0.419-3.23-1.36" fill="#fff"/></g></g></g></g><g transform="translate(-316 -340)"><g fill="#fff"><g fill="#fff"><g fill="#fff"><path d="m571 508c-1.78 0-3.22-1.44-3.22-3.22v-0.925c0-1.78 1.44-3.22 3.22-3.22h59.8v7.36z" fill="#fff"/></g></g></g></g><g transform="translate(-316 -340)"><g fill="#fff"><g fill="#fff"><g fill="#fff"><path d="m599 490c-1.78 0-3.22-1.44-3.22-3.22v-0.925c0-1.78 1.44-3.22 3.22-3.22h31.3v7.36z" fill="#fff"/></g></g></g></g><g transform="translate(-316 -340)"><g fill="#fff"><g fill="#fff"><g fill="#fff"><path d="m599 472c-1.78 0-3.22-1.44-3.22-3.22v-0.926c0-1.78 1.44-3.22 3.22-3.22h31.3v7.36z" fill="#fff"/></g></g></g></g><g transform="translate(-316 -340)"><g fill="#fff"><g fill="#fff"><g fill="#fff"><path d="m599 454c-1.78 0-3.22-1.44-3.22-3.22v-0.926c0-1.78 1.44-3.22 3.22-3.22h31.3v7.36z" fill="#fff"/></g></g></g></g><g transform="translate(-316 -340)"><g fill="#fff"><g fill="#fff"><g fill="#fff"><path d="m599 436c-1.78 0-3.22-1.44-3.22-3.22v-0.926c0-1.78 1.44-3.22 3.22-3.22h31.3v7.36z" fill="#fff"/></g></g></g></g><g transform="translate(-316 -340)"><g fill="#fff"><g fill="#fff"><g fill="#fff"><path d="m571 418c-1.78 0-3.22-1.44-3.22-3.22v-0.924c0-1.78 1.44-3.22 3.22-3.22h59.8v7.36z" fill="#fff"/></g></g></g></g><g transform="translate(-316 -340)"><g fill="#fff"><g fill="#fff"><g fill="#fff"><path d="m369 597v-7.36h59.8c1.78 0 3.22 1.44 3.22 3.22v0.927c0 1.78-1.44 3.22-3.22 3.22z" fill="#fff"/></g></g></g></g><g transform="translate(-316 -340)"><g fill="#fff"><g fill="#fff"><g fill="#fff"><path d="m369 579v-7.36h31.3c1.78 0 3.22 1.44 3.22 3.22v0.925c0 1.78-1.44 3.22-3.22 3.22z" fill="#fff"/></g></g></g></g><g transform="translate(-316 -340)"><g fill="#fff"><g fill="#fff"><g fill="#fff"><path d="m369 561v-7.36h31.3c1.78 0 3.22 1.44 3.22 3.22v0.926c0 1.78-1.44 3.22-3.22 3.22z" fill="#fff"/></g></g></g></g><g transform="translate(-316 -340)"><g fill="#fff"><g fill="#fff"><g fill="#fff"><path d="m369 543v-7.36h31.3c1.78 0 3.22 1.44 3.22 3.22v0.925c0 1.78-1.44 3.22-3.22 3.22z" fill="#fff"/></g></g></g></g><g transform="translate(-316 -340)"><g fill="#fff"><g fill="#fff"><g fill="#fff"><path d="m369 525v-7.36h31.3c1.78 0 3.22 1.44 3.22 3.22v0.926c0 1.78-1.44 3.22-3.22 3.22z" fill="#fff"/></g></g></g></g><g transform="translate(-316 -340)"><g fill="#fff"><g fill="#fff"><g fill="#fff"><path d="m369 507v-7.36h59.8c1.78 0 3.22 1.44 3.22 3.22v0.925c0 1.78-1.44 3.22-3.22 3.22z" fill="#fff"/></g></g></g></g></g></g></svg>
