<?xml version="1.0" encoding="iso-8859-1"?>
<!-- Generator: Adobe Illustrator 18.0.0, SVG Export Plug-In . SVG Version: 6.00 Build 0)  -->
<!DOCTYPE svg PUBLIC "-//W3C//DTD SVG 1.1//EN" "http://www.w3.org/Graphics/SVG/1.1/DTD/svg11.dtd">
<svg version="1.1" id="Capa_1" xmlns="http://www.w3.org/2000/svg" xmlns:xlink="http://www.w3.org/1999/xlink" x="0px" y="0px"
	 viewBox="0 0 216.314 216.314" style="enable-background:new 0 0 216.314 216.314;" xml:space="preserve">
<g>
	<path style="fill:#1D1D1B;" d="M214.117,164.496L51.818,2.197c-2.929-2.929-7.678-2.929-10.606,0L2.197,41.211
		c-2.929,2.929-2.929,7.678,0,10.606l162.299,162.299c1.464,1.464,3.384,2.197,5.303,2.197s3.839-0.732,5.303-2.197l39.014-39.014
		C217.046,172.174,217.046,167.425,214.117,164.496z M169.799,198.207l-10.579-10.579l8.775-8.775c1.953-1.953,1.953-5.119,0-7.071
		c-1.953-1.952-5.118-1.952-7.071,0l-8.775,8.775l-10.12-10.12l14.204-14.204c1.953-1.953,1.953-5.119,0-7.071
		c-1.953-1.951-5.118-1.952-7.071,0l-14.204,14.204l-10.12-10.12l8.775-8.775c1.953-1.953,1.953-5.119,0-7.071
		c-1.952-1.952-5.117-1.952-7.071,0l-8.775,8.775l-10.12-10.12l14.204-14.204c1.953-1.953,1.953-5.119,0-7.071
		c-1.953-1.952-5.118-1.952-7.071,0l-14.204,14.204l-10.12-10.12l8.775-8.775c1.953-1.953,1.953-5.119,0-7.071
		c-1.953-1.952-5.118-1.952-7.071,0l-8.775,8.775l-10.12-10.12l14.204-14.204c1.953-1.953,1.953-5.119,0-7.071
		c-1.952-1.951-5.117-1.952-7.071,0L66.193,94.601l-10.12-10.12l8.775-8.775c1.953-1.953,1.953-5.119,0-7.071
		c-1.952-1.952-5.117-1.952-7.071,0l-8.775,8.775l-10.12-10.12l14.204-14.204c1.953-1.953,1.953-5.119,0-7.071
		c-1.953-1.952-5.118-1.952-7.071,0L31.811,60.218L18.107,46.514l28.408-28.408l151.693,151.693L169.799,198.207z"/>
</g>
<g>
</g>
<g>
</g>
<g>
</g>
<g>
</g>
<g>
</g>
<g>
</g>
<g>
</g>
<g>
</g>
<g>
</g>
<g>
</g>
<g>
</g>
<g>
</g>
<g>
</g>
<g>
</g>
<g>
</g>
</svg>
