<?xml version="1.0" encoding="UTF-8"?>
<!-- Created with Inkscape (http://www.inkscape.org/) -->
<svg width="15mm" height="15mm" version="1.1" viewBox="0 0 15 15" xmlns="http://www.w3.org/2000/svg" xmlns:cc="http://creativecommons.org/ns#" xmlns:dc="http://purl.org/dc/elements/1.1/" xmlns:rdf="http://www.w3.org/1999/02/22-rdf-syntax-ns#">
 <metadata>
  <rdf:RDF>
   <cc:Work rdf:about="">
    <dc:format>image/svg+xml</dc:format>
    <dc:type rdf:resource="http://purl.org/dc/dcmitype/StillImage"/>
    <dc:title/>
   </cc:Work>
  </rdf:RDF>
 </metadata>
 <g transform="translate(0,-282)">
  <g transform="matrix(1.19 0 0 1.16 .319 -50)" aria-label="n">
   <path transform="translate(-.935 1.07)" d="m11.8 288c-0.368 0-0.693 0.121-0.977 0.365h-0.0488l-0.0527-0.328-0.795 0.0859c0.101 0.438 0.152 0.904 0.152 1.4 0 0.37-0.0175 0.878-0.0547 1.53h0.834c0-0.647-0.0053-1.37-0.0156-2.18 0.211-0.161 0.434-0.24 0.67-0.24 0.196 0 0.342 0.0561 0.438 0.172 0.0972 0.116 0.145 0.338 0.145 0.662 0 0.535-0.0229 1.06-0.0684 1.59h0.826c-0.0103-0.684-0.0156-1.16-0.0156-1.44 0-0.105 0.0017-0.209 0.0059-0.309 0.0062-0.101 0.0098-0.18 0.0098-0.24 0-0.403-0.0968-0.679-0.289-0.828-0.19-0.151-0.445-0.227-0.764-0.227zm-4.41 2.09c-0.785 0-1.39 0.274-1.81 0.822-0.417 0.548-0.627 1.3-0.627 2.26 0 0.934 0.194 1.62 0.58 2.05 0.389 0.427 0.965 0.641 1.73 0.641 0.785 0 1.38-0.243 1.8-0.729 0.413-0.489 0.621-1.23 0.621-2.21 0-0.913-0.194-1.61-0.58-2.1-0.386-0.489-0.955-0.734-1.71-0.734zm-4.36 0.109-1.81 1.39 0.268 0.496 0.828-0.361c0.0241 0.63 0.0352 1.22 0.0352 1.78 0 0.544-0.0187 1.26-0.0566 2.15h1.38c-0.0379-0.906-0.0566-1.62-0.0566-2.15 0-0.785 0.0187-1.89 0.0566-3.31zm4.24 0.883c0.403 0 0.691 0.205 0.867 0.611 0.176 0.407 0.264 0.924 0.264 1.55-1e-7 1.08-0.342 1.62-1.03 1.62-0.396 0-0.684-0.165-0.863-0.496-0.176-0.334-0.264-0.847-0.264-1.54 0-1.16 0.341-1.75 1.02-1.75z" stroke-width=".265"/>
  </g>
 </g>
</svg>
