<?xml version="1.0" encoding="iso-8859-1"?>
<!-- Generator: Adobe Illustrator 18.1.1, SVG Export Plug-In . SVG Version: 6.00 Build 0)  -->
<svg version="1.1" id="Capa_1" xmlns="http://www.w3.org/2000/svg" xmlns:xlink="http://www.w3.org/1999/xlink" x="0px" y="0px"
	 viewBox="0 0 26 26" style="enable-background:new 0 0 26 26;" xml:space="preserve">
<g>
	<path style="fill:#030104;" d="M13.014,11.002c-1.107,0.008-2.008-0.884-2.016-1.987c-0.009-1.107,0.879-2.007,1.987-2.016
		c0.166-0.001,0.324,0.023,0.478,0.06c1.156-0.905,2.667-2.085,2.839-2.208c0.298-0.211,0.64-0.236,0.883,0.007
		c0.24,0.248,0.215,0.623-0.01,0.886c-0.077,0.091-1.295,1.622-2.229,2.798c0.034,0.143,0.056,0.291,0.057,0.444
		C15.012,10.088,14.122,10.994,13.014,11.002z M0,21c0-0.553,0.448-1,1-1h9v-2.525C6.51,16.236,4,12.91,4,9c0-4.962,4.038-9,9-9
		c4.963,0,9,4.038,9,9c0,3.91-2.51,7.236-6,8.475V20h9c0.553,0,1,0.447,1,1s-0.447,1-1,1H1C0.448,22,0,21.553,0,21z M13,15
		c3.309,0,6-2.691,6-6s-2.691-6-6-6S7,5.691,7,9S9.691,15,13,15z M25,24H1c-0.552,0-1,0.447-1,1s0.448,1,1,1h24c0.553,0,1-0.447,1-1
		S25.553,24,25,24z"/>
</g>
<g>
</g>
<g>
</g>
<g>
</g>
<g>
</g>
<g>
</g>
<g>
</g>
<g>
</g>
<g>
</g>
<g>
</g>
<g>
</g>
<g>
</g>
<g>
</g>
<g>
</g>
<g>
</g>
<g>
</g>
</svg>
