<?xml version="1.0" encoding="iso-8859-1"?>
<!-- Generator: Adobe Illustrator 18.0.0, SVG Export Plug-In . SVG Version: 6.00 Build 0)  -->
<!DOCTYPE svg PUBLIC "-//W3C//DTD SVG 1.1//EN" "http://www.w3.org/Graphics/SVG/1.1/DTD/svg11.dtd">
<svg version="1.1" id="Capa_1" xmlns="http://www.w3.org/2000/svg" xmlns:xlink="http://www.w3.org/1999/xlink" x="0px" y="0px"
	 viewBox="0 0 297 297" style="enable-background:new 0 0 297 297;" xml:space="preserve">
<g>
	<path d="M62.004,250.241L274.943,99.372L204.706,1.04c-0.665-0.931-1.878-1.288-2.942-0.862l-97.345,38.938
		c-0.943,0.377-1.56,1.29-1.56,2.305V68.5l39.402,40.298c3.834,3.922,3.764,10.209-0.158,14.044c-1.932,1.888-4.438,2.83-6.942,2.83
		c-2.58,0-5.156-0.998-7.102-2.988l-25.2-25.773v16.308c0,2.089-0.296,4.178-0.852,6.194l31.859,35.566
		c3.66,4.085,3.315,10.363-0.771,14.022c-1.895,1.698-4.263,2.534-6.623,2.534c-2.725,0-5.439-1.115-7.4-3.305l-26.295-29.355
		l-7.504,15.008l22.464,27.98c3.434,4.277,2.75,10.527-1.527,13.961c-1.833,1.472-4.029,2.187-6.211,2.187
		c-2.907,0-5.788-1.27-7.75-3.713l-16.752-20.865l-6.927,13.853c-2.532,5.067-6.887,8.844-12.26,10.635l-33.77,11.256
		c-10.184,3.395-17.027,12.89-17.027,23.625v17.44H62.004z"/>
	<path d="M284.756,113.11L69.572,265.57c-1.427,1.011-3.132,1.554-4.88,1.554H5.514v5.465C5.514,286.049,16.464,297,29.925,297
		h46.619c6.631,0,12.969-2.061,18.331-5.96l184.008-133.824c13.564-9.865,16.668-28.993,6.919-42.641L284.756,113.11z"/>
</g>
<g>
</g>
<g>
</g>
<g>
</g>
<g>
</g>
<g>
</g>
<g>
</g>
<g>
</g>
<g>
</g>
<g>
</g>
<g>
</g>
<g>
</g>
<g>
</g>
<g>
</g>
<g>
</g>
<g>
</g>
</svg>
