<svg version="1.1" viewBox="0 0 10 10" xml:space="preserve" xmlns="http://www.w3.org/2000/svg"><g fill="none" stroke="#000" stroke-linecap="round" stroke-width=".8"><path d="m5.8044 9.4415h-4.6368c-0.78818-0.11001-0.99625-0.2845 0-1.248l-0.0063061-6.5199c-0.061549-1.1812 0.96958-1.135 0.96958-1.135h2.8692s0.87237-0.030678 0.80438 1.0946v6.5603s1.5086 1.143 0 1.248" style="paint-order:stroke markers fill"/><path d="m5.8044 3.4757s1.6037-0.1822 1.6364 1.5243c0.032664 1.7065 0.033978 2.119 0.033978 2.119-0.011063 1.4144 1.8407 1.292 1.7502 0 0.00332-1.4602 0.038469-2.9202 6.59e-4 -4.38l-1.225-0.785" stroke-linejoin="round" style="paint-order:stroke markers fill"/><path d="m8.4556 2.2455c0.18732 0.33353 0.040446 0.84557 0.78155 1.0809" stroke-linejoin="round" style="paint-order:stroke markers fill"/></g><rect x="2.767" y="2.1668" width="1.4345" height="1.0049" stroke="#000" stroke-linecap="round" stroke-linejoin="round" stroke-width=".74536" style="paint-order:stroke markers fill"/></svg>
