<svg version="1.1" viewBox="0 0 512 512" xml:space="preserve" xmlns="http://www.w3.org/2000/svg"><path d="m512 256a256 256 0 0 1-256 256 256 256 0 0 1-256-256 256 256 0 0 1 256-256 256 256 0 0 1 256 256z" fill="#f00"/><path d="m78.1 413 51.7-0.0266 160-159h-69.1l-90.2 104c-8.37-73.4 45.9-108 78.9-108 80.5-1.45 303 0 303 0-0.707-21.1-1.57-31-6.53-51.4h-298c-51.3 0-129 53.7-129 143z" fill="#fff"/><path d="m274 193h75.7l86-85.4c3.06-6.71 0.695-15.5-7.91-16.8-64.3 2.36-162 24.5-222 62.6 32.3-3 81.3-0.923 101 0.805l-33.1 38.8z" fill="#fff"/></svg>
