<svg version="1.1" viewBox="0 0 10 10" xml:space="preserve" xmlns="http://www.w3.org/2000/svg"><path d="m3 7.6v-5.3l-1.7 1.7" fill="none" stroke="#000" stroke-linecap="round" stroke-linejoin="round" stroke-width=".8" style="paint-order:stroke markers fill"/><circle cx="4.3" cy="7.6" r=".4" style="paint-order:stroke markers fill"/><path d="m5 1.6c-0.067-1e-3 -0.14 0.015-0.23 0.062-0.19 0.11-0.21 0.45-0.13 0.52 0.076 0.11 0.57 0.84 0.74 1.1-0.3 0.63-0.36 1.2-0.38 1.8-0.049 1.2 0.67 3 2.1 3 0.44 0 0.88-0.2 1.2-0.56 0.095 0.16 0.37 0.56 0.54 0.79 0.29 0.35 0.62 0.049 0.62 0.049s0.24-0.23 0.0059-0.55c-0.22-0.32-0.67-0.99-0.67-0.99l-3.4-5s-0.12-0.16-0.32-0.17zm0.92 2.5s1.8 2.7 1.9 2.8c-0.35 0.45-0.74 0.44-0.74 0.44s-1.1-0.0086-1.3-2.2c-0.025-0.44 0.12-1 0.12-1z" style="paint-order:stroke markers fill"/><path d="m6.3 2.2 0.45 0.67s0.19-0.08 0.29-0.067c1.1 0.14 1.3 1.9 1.3 2.4 0.15 0.22 0.67 0.96 0.67 0.96s0.11-0.44 0.13-0.94c0.058-1.2-0.5-3.1-2.1-3.2-0.39-0.011-0.74 0.2-0.74 0.2z" style="paint-order:stroke markers fill"/></svg>
