<svg width="512" height="512" version="1.1" viewBox="0 0 512 512" xmlns="http://www.w3.org/2000/svg">
 <path d="m512 256a256 256 0 0 1-256 256 256 256 0 0 1-256-256 256 256 0 0 1 256-256 256 256 0 0 1 256 256z" fill="#f00"/>
 <path d="m78.1 413 51.7-0.0266 160-159h-69.1l-90.2 104c0.283-11.2 0.567-22.3 1.17-29.9 0.603-7.55 1.53-11.5 2.65-15.2s2.44-7.34 4.04-10.9c1.59-3.52 3.46-6.96 5.5-10.2 2.03-3.28 4.23-6.4 6.41-9.17 2.18-2.77 4.35-5.2 7.09-7.78 2.74-2.58 6.05-5.31 9.41-7.72 3.36-2.41 6.77-4.49 10.3-6.34 3.52-1.85 7.16-3.48 10.6-4.77s6.58-2.25 10.3-3.12 8.03-1.66 11.4-2.09c3.36-0.432 5.77-0.509 56.1-0.512 50.3-3e-3 149 0.069 247 0.141l-2.41-51.9s-4.62-0.0866-4.62-0.0866-298-6e-3 -298-6e-3c-4.52 0.624-9.03 1.25-14.1 2.26-5.08 1.01-10.7 2.42-16.7 4.36s-12.2 4.41-17.4 6.77c-5.21 2.36-9.4 4.61-14 7.51-4.6 2.9-9.61 6.46-14.1 10.2-4.53 3.7-8.57 7.54-12.4 11.4-3.81 3.87-7.39 7.77-10.3 11.4-2.95 3.67-5.28 7.11-7.5 10.7-2.22 3.62-4.33 7.41-6.34 11.1-2.01 3.73-3.92 7.4-5.54 11.2-1.62 3.83-2.96 7.81-4.05 11.7-1.09 3.86-1.92 7.61-2.75 11.4-0.832 3.83-1.66 7.74-2.16 11.2-0.499 3.45-0.665 6.44-0.799 22-0.134 15.5-0.234 43.6-0.335 71.6l-5e-5 -2.7e-4z" fill="#fff"/>
 <path d="m273 194h76.9s85.9-86.1 85.9-86.1c0.441-1.09 0.881-2.19 1.16-3.42 0.277-1.24 0.39-2.61 0.14-4.04-0.251-1.43-0.866-2.91-1.5-4.16-0.633-1.26-1.28-2.3-2.4-3.19-1.12-0.895-2.7-1.65-5.31-1.97-2.61-0.32-6.25-0.206-10.6 0.107-4.32 0.313-9.33 0.826-17 1.79-7.65 0.969-17.9 2.39-27.5 3.86s-18.4 2.98-26.2 4.53c-7.83 1.56-14.6 3.17-20.9 4.79s-11.9 3.25-18 4.92c-6.1 1.67-12.6 3.39-18.5 5.21-5.85 1.83-11 3.77-16.8 5.98-5.76 2.21-12.1 4.69-18.6 7.35s-13.3 5.49-19.4 8.29-11.4 5.59-16.1 8.34c-4.66 2.75-8.64 5.47-12.6 8.2l9.62-0.692c5.75-0.155 11.5-0.31 17.2-0.384 5.7-0.074 11.4-0.0669 16.7-0.0928s10.2-0.0848 15.2-0.0862c4.98-1e-3 10 0.0548 14.8 0.236 4.83 0.182 9.46 0.489 13.9 0.782s8.7 0.572 10.6 0.949 1.54 0.853 1.15 1.33l-32 37.5v1e-5z" fill="#fff"/>
</svg>
